<?xml version="1.0" encoding="UTF-8"?>
<svg id="Ebene_1" data-name="Ebene 1" xmlns="http://www.w3.org/2000/svg" viewBox="0 0 841.89 595.28">
  <defs>
    <style>
      .cls-1 {
        fill: #414144;
        stroke: #414144;
      }

      .cls-1, .cls-2, .cls-3, .cls-4 {
        stroke-miterlimit: 10;
      }

      .cls-2 {
        fill: #5c9b76;
        stroke: #5c9b76;
      }

      .cls-3 {
        fill: #a5a4a4;
        stroke: #a5a4a4;
      }

      .cls-4 {
        fill: #b2d3ea;
        stroke: #b2d3ea;
      }
    </style>
  </defs>
  <path class="cls-2" d="M630.52,351.61l-24.24-63.66c-4.61-12.1-22.07-20.84-42.63-21.34l-70.16-1.69c-.28,0-.52-.19-.6-.46l-11.28-36.73c-2.62-8.53-6.4-16.68-11.44-24.04-6.39-9.33-15.7-19.44-26.07-19.44h-137.21c-19.11,0-34.63,34.33-34.86,34.86,0,.01,0,.01-.01.03l-21.2,39.6c-.12.21-.34.35-.59.34h0c-10.79-.26-19.67,8.41-19.67,19.2v62.09c0,12.82,17.21,23.2,38.44,23.2h345.74c10.41,0,18.12-5.85,15.79-11.97Z"/>
  <circle class="cls-1" cx="521" cy="360.62" r="45.74"/>
  <circle class="cls-3" cx="520.43" cy="360.43" r="29.05"/>
  <path class="cls-4" d="M435.17,264.86h-61.57c-11.33,0-20.52-9.19-20.52-20.52v-24.14c0-11.33,9.19-20.52,18.11-21.43l69.29-.24c1.96,0,3.89.49,5.59,1.45l3.78,2.12c3.93,2.2,7.24,5.36,9.62,9.18l2.62,4.19c2.86,4.57,5.06,9.52,6.54,14.71l7.84,27.43c1.01,3.52-1.61,7.03-5.27,7.06-10.13.07-28.12.2-36.04.2Z"/>
  <circle class="cls-1" cx="327.13" cy="360.81" r="45.74"/>
  <circle class="cls-3" cx="326.57" cy="360.62" r="29.05"/>
</svg>