<?xml version="1.0" encoding="UTF-8"?>
<svg id="wolke" xmlns="http://www.w3.org/2000/svg" viewBox="0 0 841.89 595.28">
  <defs>
    <style>
      .cls-1 {
        fill: #edf2f4;
      }
    </style>
  </defs>
  <path class="cls-1" d="M175.88,228.03c4.72,1.12,3.23-6.37,26.57-18.93,15.15-8.15,38.95-10.17,54.8-1.11,19.26,11.02,14.89,19.29,28.65,21.65,10.13,1.74,14.66,3.48,33.28-3.22,20.21-7.28,48.41-5.48,62.87,7.15,13.62,11.89,29.09-19.77,38.31-15.43,16.34,7.69,23.05,13.2,87.32-21.43,34.86-18.79,46.63-6.24,66.39-2.35,44.27,8.71,64.71,49.1,89.74,45.69,14.45-1.97,13.26-23.26,32.94-27.55,17.26-3.76,42.73,7.26,48.26,24.87,5.6,17.83-12.1,33.34-13.85,34.83-19.25,16.37-15.65,13.44-17.25,20.97-1.8,8.46,1.94,10.87,21.55,32.42,24.78,27.25,15.09,49.42-22.17,71.07-29.8,17.32-54.82,8.25-77.71-12.8-23.6-21.71-29.84-.87-44.24-3.06-12.39-1.88-15.07,2.27-39.29,18.5-27.61,18.5-61.06,17.53-97.66,16.47-79.55-2.31-92.89-28.36-132.09-16.72-39.99,11.88-37.91,42.49-76.11,46.68-32.71,3.59-71.41-14.77-75.88-34.75-3.4-15.2,14.12-26.42,7.33-35.38-6.69-8.83-24.62.84-43.15-7.39-20.01-8.89,7.87-30.24-14.89-68.48-19.33-32.48-53.86-29.56-54.39-45.27-.97-28.63,34.96-60.21,68.36-58.69,3.7.17,18.29.83,27.62,9.88,15.41,14.93,9.97,21.25,14.73,22.38Z"/>
</svg>