<?xml version="1.0" encoding="UTF-8"?>
<svg id="wolke" xmlns="http://www.w3.org/2000/svg" viewBox="0 0 841.89 595.28">
  <defs>
    <style>
      .cls-1 {
        fill: #edf2f4;
      }
    </style>
  </defs>
  <path class="cls-1" d="M337.6,185.08c12.07,10.26,47.43-38.1,104.52-50.21,13.93-2.95,53.71-11.39,80.18,10.34,13.19,10.83,15.33,22.79,32.93,31.01,15.02,7.01,29.28,5.69,42.95,4.43,36.14-3.34,47.23-18.69,64.43-10.34,8.07,3.92,17.25,12.95,18.61,23.63,1.36,10.64-5.82,16.85-2.86,22.15,4.04,7.24,21.61,3.18,34.36,1.48,29.68-3.97,63.8.67,85.91,13.29,26.49,15.13,24.66,56.03,24.66,56.03,0,0,9.22,23.98-31.82,31.09-38.98,6.75-98.72,9.76-136.02,17.72-3.95.84-15.55,3.45-17.18,10.34-1.7,7.2,9.16,12.04,10.02,22.15.95,11.15-10.85,21.92-18.61,26.58-5.85,3.51-23.89,12.23-80.18-11.81-44.93-19.19-42.25-28.51-73.02-38.39-9.92-3.19-45.21-14.08-87.34-5.91-40.14,7.79-60.61,27.87-77.32,16.24-10.07-7-4.95-15.9-15.75-28.06-22-24.76-59.45-6.11-71.59-25.1-10.42-16.3,13.78-35.27,4.3-60.55-8.62-22.99-32.81-18.44-44.39-42.82-10.91-22.97-4.38-58.46,14.32-67.93,15.9-8.05,39.88,3.08,52.98,14.77,12.07,10.77,14.96,22.06,24.34,22.15,10.04.1,11.62-12.79,24.34-14.77,12.1-1.88,25.27,7.52,31.5,17.72,5.05,8.27,2.41,11.95,5.73,14.77Z"/>
  <path class="cls-1" d="M104.88,313.61c12.87-9.46,14.84-19.89,25.1-20.32,9.19-.38,17.17,7.61,19.12,9.56,6.39,6.39,5.1,10.16,9.56,15.54,9.82,11.85,19.71-5.48,34.4,3.59,13.91,8.58,11.92,20.68,6.24,29.88-7.3,11.82-25.92,28.57-43.03,11.95-11.16-10.83-7.57-10.13-17.93-13.15-10.17-2.97-17.78-5.3-33.47-3.59-20.11,2.2-9.55-7.61-8.37-14.34,1.11-6.29-10.89-4.98,8.37-19.12Z"/>
</svg>